<?xml version="1.0" encoding="UTF-8"?>
<svg width="196.98mm" height="223.17mm" version="1.1" viewBox="0 0 196.98 223.17" xmlns="http://www.w3.org/2000/svg" xmlns:cc="http://creativecommons.org/ns#" xmlns:dc="http://purl.org/dc/elements/1.1/" xmlns:rdf="http://www.w3.org/1999/02/22-rdf-syntax-ns#">
 <metadata>
  <rdf:RDF>
   <cc:Work rdf:about="">
    <dc:format>image/svg+xml</dc:format>
    <dc:type rdf:resource="http://purl.org/dc/dcmitype/StillImage"/>
    <dc:title/>
   </cc:Work>
  </rdf:RDF>
 </metadata>
 <g transform="translate(-2.9585 12.844)">
  <g transform="translate(100.54 64.972)">
   <path d="m-47.013 124.61s-6.9183-45.64 0-65.027c5.3218-14.913 17.27-24.74 28.56-30.012 11.289-5.2726 24.41-5.2726 35.699 0 11.289 5.2726 23.238 15.099 28.56 30.012 6.9183 19.387 0 65.027 0 65.027z" style="fill:#47535a;stroke-width:.22361px;stroke:#000"/>
   <path d="m-19.46 37.4s-29.326-6.3154-39.502 2.1382c-15.4 12.792-17.985 37.983-14.581 58.532 0.51273 3.0956 12.317 3.3313 12.991 0.26727 3.7071-16.853-1.4082-30.669 9.2791-40.091 4.9326-4.3486 19.354-3.4745 19.354-3.4745z" style="fill:#47535a;stroke-width:.26352px;stroke:#000"/>
   <path d="m19.46 37.4s29.326-6.3154 39.502 2.1382c15.4 12.792 17.985 37.983 14.581 58.532-0.51273 3.0956-12.317 3.3313-12.991 0.26727-3.7071-16.853 1.4082-30.669-9.2791-40.091-4.9326-4.3486-19.354-3.4745-19.354-3.4745z" style="fill:#47535a;stroke-width:.26352px;stroke:#000"/>
   <path d="m-5.5632 30v-10s-11.953-4.7647-14.879-10c-3.7368-6.6857-3.1222-15.633-0.99195-23 1.1295-3.9063 3.3637-8.121 6.9436-10 8.2118-4.3103 19.563-4.3103 27.774 0 3.5799 1.879 5.8141 6.0938 6.9436 10 2.1302 7.3673 2.7448 16.314-0.99195 23-2.9262 5.2354-14.879 10-14.879 10v10" style="fill:#f6d7d2;stroke-width:.26393;stroke:#000"/>
   <ellipse cx="-7" cy="-8.8909" rx="3.866" ry="2.9751" style="fill-rule:evenodd;fill:#fff;stroke-width:.26794;stroke:#000"/>
   <ellipse cx="6.9123" cy="-8.8909" rx="3.7798" ry="2.9766" style="fill-rule:evenodd;fill:#fff;stroke-width:.265;stroke:#000"/>
   <ellipse cx="-6.7808" cy="-8.7879" rx="1.0867" ry=".75595" style="fill-rule:evenodd;stroke-width:.265;stroke:#000"/>
   <ellipse cx="6.7812" cy="-8.7875" rx="1.0867" ry=".75595" style="fill-rule:evenodd;stroke-width:.265;stroke:#000"/>
   <ellipse cx="-6.2585e-7" cy="6.214" rx="9.8681" ry="3.9428" style="fill-rule:evenodd;fill:#fff;stroke-width:.26385;stroke:#000"/>
   <ellipse cx="1.5368" cy="8.8199" rx="3.4077" ry="1.2027" style="fill-rule:evenodd;fill:#b5535a;stroke-width:.265;stroke:#000"/>
  </g>
  <g transform="translate(19.128 28.643)">
   <ellipse cx="58.532" cy="26.393" rx="4.6772" ry="12.628" style="fill-rule:evenodd;fill:#a92c2e;stroke:#000"/>
   <ellipse cx="103.17" cy="26.727" rx="4.6772" ry="12.628" style="fill-rule:evenodd;fill:#a92c2e;stroke:#000"/>
   <path d="m59.111 14.232c1.2471-2.0713 4.5434-6.214 8.5304-8.9981 3.9869-2.7841 8.664-4.2095 13.72-4.0758s10.49 1.8264 14.455 4.9447c3.9645 3.1183 6.4589 7.6618 7.1939 9.9334 0.73503 2.2716-0.28948 2.2716-1.8263 0.75723-1.5368-1.5144-3.5859-4.5434-6.949-7.1271-3.3631-2.5837-8.0403-4.7218-12.629-4.9446-4.5883-0.22281-9.0872 1.4699-12.762 3.7194-3.6751 2.2496-6.5259 5.0558-8.3521 6.459-1.8262 1.4032-2.628 1.4032-1.3809-0.66816z" style="fill:#a92c2e;stroke:#000"/>
  </g>
 </g>
</svg>
