<?xml version="1.0" encoding="UTF-8" standalone="no"?>
<svg
   width="196.98mm"
   height="223.17mm"
   version="1.1"
   viewBox="0 0 196.98 223.17"
   id="svg28"
   sodipodi:docname="avatarWithPinkCap.svg"
   inkscape:version="1.2.1 (9c6d41e410, 2022-07-14)"
   xmlns:inkscape="http://www.inkscape.org/namespaces/inkscape"
   xmlns:sodipodi="http://sodipodi.sourceforge.net/DTD/sodipodi-0.dtd"
   xmlns="http://www.w3.org/2000/svg"
   xmlns:svg="http://www.w3.org/2000/svg"
   xmlns:rdf="http://www.w3.org/1999/02/22-rdf-syntax-ns#"
   xmlns:cc="http://creativecommons.org/ns#"
   xmlns:dc="http://purl.org/dc/elements/1.1/">
  <defs
     id="defs32">
    <inkscape:path-effect
       effect="bspline"
       id="path-effect8082"
       is_visible="true"
       lpeversion="1"
       weight="33.333333"
       steps="2"
       helper_size="0"
       apply_no_weight="true"
       apply_with_weight="true"
       only_selected="false" />
    <inkscape:path-effect
       effect="bspline"
       id="path-effect6929"
       is_visible="true"
       lpeversion="1"
       weight="33.333333"
       steps="2"
       helper_size="0"
       apply_no_weight="true"
       apply_with_weight="true"
       only_selected="false" />
    <inkscape:path-effect
       effect="bspline"
       id="path-effect6709"
       is_visible="true"
       lpeversion="1"
       weight="33.333333"
       steps="2"
       helper_size="0"
       apply_no_weight="true"
       apply_with_weight="true"
       only_selected="false" />
    <inkscape:path-effect
       effect="bspline"
       id="path-effect1029"
       is_visible="true"
       lpeversion="1"
       weight="33.333333"
       steps="2"
       helper_size="0"
       apply_no_weight="true"
       apply_with_weight="true"
       only_selected="false" />
    <inkscape:path-effect
       effect="bspline"
       id="path-effect30051"
       is_visible="true"
       lpeversion="1"
       weight="33.333333"
       steps="2"
       helper_size="0"
       apply_no_weight="true"
       apply_with_weight="true"
       only_selected="false" />
    <inkscape:path-effect
       effect="bspline"
       id="path-effect26173"
       is_visible="true"
       lpeversion="1"
       weight="33.333333"
       steps="2"
       helper_size="0"
       apply_no_weight="true"
       apply_with_weight="true"
       only_selected="false" />
    <inkscape:path-effect
       effect="bspline"
       id="path-effect22269"
       is_visible="true"
       lpeversion="1"
       weight="33.333333"
       steps="2"
       helper_size="0"
       apply_no_weight="true"
       apply_with_weight="true"
       only_selected="false" />
    <inkscape:path-effect
       effect="bspline"
       id="path-effect17098"
       is_visible="true"
       lpeversion="1"
       weight="33.333333"
       steps="2"
       helper_size="0"
       apply_no_weight="true"
       apply_with_weight="true"
       only_selected="false" />
    <inkscape:path-effect
       effect="bspline"
       id="path-effect17068"
       is_visible="true"
       lpeversion="1"
       weight="33.333333"
       steps="2"
       helper_size="0"
       apply_no_weight="true"
       apply_with_weight="true"
       only_selected="false" />
    <inkscape:path-effect
       effect="bspline"
       id="path-effect15586"
       is_visible="true"
       lpeversion="1"
       weight="33.333333"
       steps="2"
       helper_size="0"
       apply_no_weight="true"
       apply_with_weight="true"
       only_selected="false" />
    <inkscape:path-effect
       effect="bspline"
       id="path-effect17068-7"
       is_visible="true"
       lpeversion="1"
       weight="33.333333"
       steps="2"
       helper_size="0"
       apply_no_weight="true"
       apply_with_weight="true"
       only_selected="false" />
    <inkscape:path-effect
       effect="bspline"
       id="path-effect30051-0"
       is_visible="true"
       lpeversion="1"
       weight="33.333333"
       steps="2"
       helper_size="0"
       apply_no_weight="true"
       apply_with_weight="true"
       only_selected="false" />
  </defs>
  <sodipodi:namedview
     id="namedview30"
     pagecolor="#ffffff"
     bordercolor="#000000"
     borderopacity="0.25"
     inkscape:showpageshadow="2"
     inkscape:pageopacity="0.0"
     inkscape:pagecheckerboard="0"
     inkscape:deskcolor="#d1d1d1"
     inkscape:document-units="mm"
     showgrid="false"
     inkscape:zoom="0.79137745"
     inkscape:cx="311.48221"
     inkscape:cy="404.99006"
     inkscape:window-width="1440"
     inkscape:window-height="830"
     inkscape:window-x="-6"
     inkscape:window-y="-6"
     inkscape:window-maximized="1"
     inkscape:current-layer="svg28" />
  <metadata
     id="metadata2">
    <rdf:RDF>
      <cc:Work
         rdf:about="">
        <dc:format>image/svg+xml</dc:format>
        <dc:type
           rdf:resource="http://purl.org/dc/dcmitype/StillImage" />
      </cc:Work>
    </rdf:RDF>
  </metadata>
  <path
     d="m 171.08,201.58 -61.295,-21.409 -52.385,38.356 1.4199,-64.91 -52.667,-37.968 62.172,-18.708 19.835,-61.822 37.005,53.348 64.926,-0.23961 -39.302,51.679 z"
     style="display:none;fill:#f1591b;fill-rule:evenodd;stroke:#000000;stroke-width:2.5134;stroke-opacity:0.71888"
     id="path4" />
  <g
     transform="translate(97.582,77.816)"
     id="g26"
     style="display:inline">
    <path
       d="m -47.013,124.61 c 0,0 -6.9183,-45.64 0,-65.027 5.3218,-14.913 17.27,-24.74 28.56,-30.012 11.289,-5.2726 24.41,-5.2726 35.699,0 11.289,5.2726 23.238,15.099 28.56,30.012 6.9183,19.387 0,65.027 0,65.027 z"
       style="fill:#47535a;stroke:#000000;stroke-width:0.22361px"
       id="path6" />
    <path
       d="m -19.46,37.4 c 0,0 -29.326,-6.3154 -39.502,2.1382 -15.4,12.792 -17.985,37.983 -14.581,58.532 0.51273,3.0956 12.317,3.3313 12.991,0.26727 3.7071,-16.853 -1.4082,-30.669 9.2791,-40.091 4.9326,-4.3486 19.354,-3.4745 19.354,-3.4745 z"
       style="fill:#47535a;stroke:#000000;stroke-width:0.26352px"
       id="path8" />
    <path
       d="m 19.46,37.4 c 0,0 29.326,-6.3154 39.502,2.1382 15.4,12.792 17.985,37.983 14.581,58.532 -0.51273,3.0956 -12.317,3.3313 -12.991,0.26727 -3.7071,-16.853 1.4082,-30.669 -9.2791,-40.091 -4.9326,-4.3486 -19.354,-3.4745 -19.354,-3.4745 z"
       style="fill:#47535a;stroke:#000000;stroke-width:0.26352px"
       id="path10" />
    <path
       d="M -5.5632,30 V 20 c 0,0 -11.953,-4.7647 -14.879,-10 -3.7368,-6.6857 -3.1222,-15.633 -0.99195,-23 1.1295,-3.9063 3.3637,-8.121 6.9436,-10 8.2118,-4.3103 19.563,-4.3103 27.774,0 3.5799,1.879 5.8141,6.0938 6.9436,10 2.1302,7.3673 2.7448,16.314 -0.99195,23 -2.9262,5.2354 -14.879,10 -14.879,10 v 10"
       style="display:inline;fill:#f6d7d2;stroke:#000000;stroke-width:0.26393"
       id="path12" />
    <ellipse
       cx="-7"
       cy="-8.8908997"
       rx="3.8659999"
       ry="2.9751"
       style="fill:#ffffff;fill-rule:evenodd;stroke:#000000;stroke-width:0.26794"
       id="ellipse14" />
    <ellipse
       cx="6.9123001"
       cy="-8.8908997"
       rx="3.7797999"
       ry="2.9765999"
       style="fill:#ffffff;fill-rule:evenodd;stroke:#000000;stroke-width:0.265"
       id="ellipse16" />
    <ellipse
       cx="-6.7807999"
       cy="-8.7879"
       rx="1.0867"
       ry="0.75594997"
       style="fill-rule:evenodd;stroke:#000000;stroke-width:0.265"
       id="ellipse18" />
    <ellipse
       cx="6.7811999"
       cy="-8.7875004"
       rx="1.0867"
       ry="0.75594997"
       style="fill-rule:evenodd;stroke:#000000;stroke-width:0.265"
       id="ellipse20" />
    <ellipse
       cx="-6.2585002e-07"
       cy="6.2140002"
       rx="9.8681002"
       ry="3.9428"
       style="fill:#ffffff;fill-rule:evenodd;stroke:#000000;stroke-width:0.26385"
       id="ellipse22" />
    <ellipse
       cx="1.5368"
       cy="8.8198996"
       rx="3.4077001"
       ry="1.2027"
       style="display:inline;fill:#b5535a;fill-rule:evenodd;stroke:#000000;stroke-width:0.265"
       id="ellipse24" />
  </g>
  <g
     id="g13834"
     inkscape:label="hat"
     style="display:none">
    <path
       style="fill:#f154a1;fill-opacity:1;stroke:#2a2626;stroke-width:1;stroke-linecap:round;stroke-linejoin:round;stroke-dasharray:none;paint-order:markers stroke fill"
       d="m 71.395486,60.039777 c 0,0 4.784532,-8.366468 6.726514,-12.767345 1.738685,-3.940168 1.494157,-8.960833 4.384704,-12.153432 4.118438,-4.5488 10.480836,-8.178482 16.612096,-7.931978 5.26332,0.211609 10.37071,3.823903 13.66784,7.931978 2.93161,3.652652 2.20514,9.179923 4.25536,13.390958 1.95422,4.013859 7.54548,11.065083 7.54548,11.065083 0,0 -17.94608,3.001644 -27.005481,3.065233 -8.771557,0.06157 -26.186513,-2.600497 -26.186513,-2.600497 z"
       id="path3101"
       sodipodi:nodetypes="cssssscsc" />
    <path
       style="fill:#f154a1;fill-opacity:1;stroke:#f58abe;stroke-width:1;stroke-linecap:round;stroke-linejoin:round;stroke-dasharray:none;stroke-opacity:1;paint-order:markers stroke fill"
       d="m 83.736713,48.905244 c 0,0 7.058534,2.228322 10.711286,2.67803 3.639819,0.448116 7.408031,0.730208 11.001901,0 2.51218,-0.510429 7.08073,-3.001248 7.08073,-3.001248"
       id="path9852"
       sodipodi:nodetypes="cssc" />
    <path
       style="fill:#f154a1;fill-opacity:1;stroke:#f58abe;stroke-width:1;stroke-linecap:round;stroke-linejoin:round;stroke-dasharray:none;stroke-opacity:1;paint-order:markers stroke fill"
       d="m 88.159898,35.119 c 0,0 7.24632,2.061275 10.958902,1.997197 3.12307,-0.0539 9.1553,-1.997197 9.1553,-1.997197"
       id="path11306"
       sodipodi:nodetypes="csc" />
  </g>
  <g
     id="g31191"
     style="display:none">
    <path
       id="path14071"
       style="mix-blend-mode:normal;fill:#7ea5de;fill-opacity:1;stroke:#000000;stroke-width:1;stroke-linecap:round;stroke-linejoin:round;stroke-dasharray:none;stroke-opacity:1;paint-order:markers stroke fill"
       d="m 97.093802,34.003092 a 24.562141,22.80867 0 0 0 -24.56181,22.808427 24.562141,22.80867 0 0 0 0.91674,6.119523 h 47.290138 a 24.562141,22.80867 0 0 0 0.91725,-6.119523 24.562141,22.80867 0 0 0 -24.562318,-22.808427 z" />
    <path
       style="fill:#e65e5e;fill-opacity:1;stroke:#000000;stroke-width:1;stroke-linecap:round;stroke-linejoin:round;stroke-dasharray:none;stroke-opacity:1;paint-order:markers stroke fill"
       d="m 95.832115,35.434516 c -0.770398,1.431425 -2.31114,4.294175 -3.386742,6.969317 -1.075602,2.675142 -1.686044,5.162479 -2.456422,8.552475 -0.770377,3.389996 -1.700645,7.682422 -2.165767,9.864093 -0.465122,2.181671 -0.465122,2.252436 2.721833,2.290147 3.186955,0.03771 9.560353,0.04263 12.764183,0.0073 3.20384,-0.03532 3.23832,-0.111019 2.91256,-1.672974 -0.32576,-1.561954 -1.01186,-4.610231 -1.82287,-7.8686 -0.811,-3.258369 -1.74688,-6.726625 -2.98518,-10.023811 -1.2383,-3.297186 -2.779011,-6.4231 -3.631209,-7.986251 -0.852199,-1.56315 -1.015969,-1.56315 -1.097979,-1.56315 -0.08201,0 -0.08201,1.8e-5 -0.852407,1.431443 z"
       id="path17096"
       inkscape:path-effect="#path-effect17098"
       inkscape:original-d="m 96.602512,34.003091 c -1.54048,2.863019 -3.08122,5.725771 -4.62223,8.588261 -0.6102,2.487699 -1.22064,4.975037 -1.83136,7.462157 -0.93004,4.292862 -1.86031,8.585287 -2.79086,12.877533 2.6e-4,0.07103 2.6e-4,0.141795 0,0.212296 6.37391,0.0052 12.747308,0.01011 19.120558,0.01476 0.0347,-0.07543 0.0692,-0.15112 0.10343,-0.227074 -0.68586,-3.048137 -1.37195,-6.096415 -2.05833,-9.145021 -0.93566,-3.468134 -1.87153,-6.936393 -2.8077,-10.404988 -1.54051,-3.125779 -3.081208,-6.251697 -4.622218,-9.377942 -0.1635,2.65e-4 -0.32727,2.65e-4 -0.49129,0 z" />
    <path
       style="fill:#f1cf51;fill-opacity:1;stroke:#000000;stroke-width:1;stroke-linecap:round;stroke-linejoin:round;stroke-dasharray:none;stroke-opacity:1;paint-order:markers stroke fill"
       d="m 95.130224,34.194621 c -1.554298,0.19155 -4.663118,0.574676 -8.018856,1.822469 -3.355738,1.247793 -6.958107,3.360189 -9.636095,6.485114 -2.677987,3.124925 -4.43132,7.261999 -4.94825,10.835665 -0.516929,3.573666 0.20242,6.583545 0.565148,8.137639 0.362728,1.554094 0.368445,1.64545 2.610912,1.680432 2.242468,0.03498 6.721038,0.01041 9.036219,-0.03703 2.315181,-0.04744 2.467013,-0.117679 2.762815,-1.306743 0.295802,-1.189063 0.740786,-3.523786 1.227564,-5.74355 0.486778,-2.219764 1.017871,-4.337756 1.438327,-6.351652 0.420455,-2.013895 0.730239,-3.923605 1.428258,-5.968037 0.698018,-2.044433 1.784239,-4.223353 2.637322,-5.87009 0.853082,-1.646738 1.472978,-2.761191 1.842751,-3.318475 0.369773,-0.557283 0.489103,-0.55729 0.548633,-0.557293 0.05953,-3e-6 0.05955,-10e-7 -1.494748,0.191548 z"
       id="path22267"
       inkscape:path-effect="#path-effect22269"
       inkscape:original-d="m 96.684522,34.003072 c -3.10856,0.383392 -6.21738,0.766516 -9.32646,1.149379 -3.60225,2.112743 -7.20462,4.225137 -10.80732,6.337311 -1.75314,4.137501 -3.50647,8.274576 -5.2601,12.411466 0.71964,3.010262 1.43899,6.020141 2.15809,9.029814 0.006,0.09857 0.0121,0.189902 0.0178,0.284456 4.47902,-0.02431 8.95759,-0.04888 13.43599,-0.07372 0.15211,-0.06998 0.30394,-0.140227 0.45552,-0.210738 0.4399,-2.307929 0.88516,-4.642599 1.32735,-6.964294 0.53138,-2.117812 1.06247,-4.235804 1.59331,-6.354101 0.31006,-1.909524 0.61984,-3.819234 0.92937,-5.729245 1.08653,-2.178743 2.17275,-4.357664 3.25873,-6.536894 0.62018,-1.114229 1.24008,-2.22868 1.85972,-3.343417 0.11959,2.59e-4 0.23892,2.54e-4 0.35798,-1.9e-5 z" />
    <path
       style="fill:#e65e5e;fill-opacity:1;stroke:#000000;stroke-width:1;stroke-linecap:round;stroke-linejoin:round;stroke-dasharray:none;stroke-opacity:1;paint-order:markers stroke fill"
       d="m 96.684525,33.253517 c -0.08201,-0.749574 -0.08201,-2.248984 0.07465,-2.970934 0.156662,-0.721949 0.469669,-0.666228 0.551386,0.08358 0.08172,0.74981 -0.06753,2.193472 -0.223896,2.915199 -0.156364,0.721727 -0.320125,0.721727 -0.402138,-0.02785 z"
       id="path26171"
       inkscape:path-effect="#path-effect26173"
       inkscape:original-d="m 96.602512,34.003091 c 2.64e-4,-1.499148 2.64e-4,-2.998558 0,-4.498234 0.313285,0.05599 0.626292,0.111709 0.939043,0.167166 -0.148989,1.443982 -0.298238,2.887644 -0.447754,4.331068 -0.163502,2.64e-4 -0.327263,2.64e-4 -0.491289,0 z" />
    <path
       style="fill:#ccd2dc;fill-opacity:1;stroke:#000000;stroke-width:1;stroke-linecap:round;stroke-linejoin:round;stroke-dasharray:none;stroke-opacity:1;paint-order:markers stroke fill"
       d="m 100.55621,27.170483 c 3.94792,-1.651732 11.45366,-4.718371 15.91405,-6.113726 4.4604,-1.395354 5.87524,-1.119548 6.64163,-0.232888 0.7664,0.886661 0.8846,2.383888 -0.53381,3.585475 -1.41842,1.201588 -4.37347,2.107804 -9.08793,2.873019 -4.71446,0.765215 -11.18807,1.389357 -14.229993,1.583012 -3.041925,0.193655 -2.651877,-0.04316 1.296053,-1.694892 z"
       id="path30049"
       inkscape:path-effect="#path-effect30051"
       inkscape:original-d="m 96.99826,28.585443 c 7.506,-3.066373 15.01174,-6.133011 22.51721,-9.199914 1.41515,0.276081 2.82999,0.551886 4.24459,0.827431 0.11847,1.497551 0.23667,2.994778 0.35461,4.491769 -2.95491,0.906517 -5.90996,1.812733 -8.86533,2.718703 -6.47362,0.624433 -12.94723,1.248577 -19.421245,1.872467 0.390326,-0.236558 0.780375,-0.473371 1.170165,-0.710456 z" />
    <path
       style="fill:#ccd2dc;fill-opacity:1;stroke:#000000;stroke-width:1;stroke-linecap:round;stroke-linejoin:round;stroke-dasharray:none;stroke-opacity:1;paint-order:markers stroke fill"
       d="m 93.941455,30.674363 c -3.947924,1.651733 -11.453664,4.718372 -15.91406,6.113726 -4.460395,1.395355 -5.875235,1.119548 -6.641629,0.232888 -0.766394,-0.886661 -0.884595,-2.383888 0.533818,-3.585475 1.418412,-1.201588 4.373462,-2.107804 9.087923,-2.873019 4.714461,-0.765215 11.188071,-1.389357 14.229996,-1.583012 3.041925,-0.193655 2.651877,0.04316 -1.296048,1.694892 z"
       id="path30049-1"
       inkscape:path-effect="#path-effect30051-0"
       inkscape:original-d="m 97.4994,29.259403 c -7.506,3.066373 -15.01174,6.133011 -22.51721,9.199915 -1.41515,-0.276082 -2.82999,-0.551887 -4.24459,-0.827432 -0.11847,-1.497551 -0.23667,-2.994778 -0.35461,-4.491769 2.95491,-0.906517 5.90996,-1.812733 8.86533,-2.718703 6.47362,-0.624433 12.94723,-1.248577 19.421245,-1.872467 -0.390326,0.236558 -0.780375,0.473371 -1.170165,0.710456 z" />
    <ellipse
       style="fill:#7ea5de;fill-opacity:1;stroke:#000000;stroke-width:1;stroke-linecap:round;stroke-linejoin:round;stroke-dasharray:none;stroke-opacity:1;paint-order:markers stroke fill"
       id="path27817"
       cx="96.99826"
       cy="29.2959"
       rx="1.1701643"
       ry="0.71045691" />
  </g>
  <g
     id="g13146">
    <path
       style="fill:#661bec;stroke:#000000;stroke-width:1;stroke-linecap:round;stroke-linejoin:round;paint-order:markers stroke fill;fill-opacity:1"
       d="m 74.898415,83.901626 c -0.440551,0.546873 -1.321628,1.640588 -1.919648,1.987122 -0.59802,0.346534 -0.913227,-0.05436 -2.331758,-3.502059 -1.418532,-3.447701 -3.940176,-9.941969 -5.082905,-13.424344 -1.142729,-3.482375 -0.906324,-3.952488 0.512341,-3.695013 1.418666,0.257474 4.01911,1.24249 5.785817,0.412867 1.766708,-0.829623 2.72469,-3.543908 3.946157,-6.02627 1.221468,-2.482361 2.718694,-4.767601 5.082472,-6.422532 2.363778,-1.65493 5.593743,-2.679348 7.997737,-3.211245 2.403994,-0.531898 3.981794,-0.571299 4.770583,-0.709203 0.788788,-0.137904 0.788788,-0.374309 0.788788,-1.260725 0,-0.886417 0,-2.423043 -2.364433,-5.102397 -2.364432,-2.679355 -7.093397,-6.501222 -9.162559,-8.727525 -2.069162,-2.226302 -1.478152,-2.856712 4.314114,-3.112824 5.792267,-0.256112 16.785059,-0.13791 22.439109,0.295672 5.65405,0.433582 5.96925,1.182192 3.21534,3.290026 -2.7539,2.107833 -8.57664,5.57509 -11.48811,8.234865 -2.911464,2.659775 -2.911464,4.511607 -2.659499,5.43741 0.251966,0.925804 0.755611,0.925804 2.760859,1.162238 2.00524,0.236433 5.5119,0.709241 8.51681,1.845279 3.0049,1.136039 5.54522,2.961891 7.48238,5.63877 1.93716,2.67688 3.26365,6.149158 4.30789,8.170017 1.04424,2.020858 1.79285,2.555926 2.62011,1.748132 0.82727,-0.807794 1.73348,-2.958291 2.5217,-3.935075 0.78822,-0.976785 1.45804,-0.779779 1.08353,3.155735 -0.3745,3.935513 -1.79293,11.60911 -3.15224,15.869137 -1.35932,4.260026 -2.65954,5.106541 -3.68393,4.872838 -1.02438,-0.233703 -1.77299,-1.547943 -2.00771,-3.16825 -0.23472,-1.620308 0.0447,-3.546487 0.18203,-5.01757 0.13735,-1.471084 0.13261,-2.48704 0.0816,-3.609453 -0.0511,-1.122413 -0.14846,-2.351241 -0.43047,-4.08249 -0.28202,-1.731249 -0.74868,-3.96483 -1.15291,-5.560176 -0.40423,-1.595345 -0.74606,-2.552388 -1.14598,-3.471522 -0.39992,-0.919134 -0.86565,-1.815105 -1.36849,-2.621665 -0.50283,-0.806559 -1.04665,-1.53104 -1.68224,-2.205012 -0.63559,-0.673973 -1.36298,-1.29735 -2.14421,-1.820593 -0.78124,-0.523243 -1.6163,-0.946242 -2.8357,-1.418295 -1.2194,-0.472053 -2.82306,-0.993074 -4.1868,-1.351569 -1.36373,-0.358495 -2.48747,-0.554399 -3.58774,-0.691086 -1.100258,-0.136686 -2.17696,-0.214115 -3.370915,-0.226368 -1.193954,-0.01225 -2.503128,0.04063 -3.466991,0.106457 -0.963863,0.06583 -1.581373,0.144591 -2.420439,0.295811 -0.839066,0.15122 -1.899606,0.374903 -3.23254,0.781573 -1.332933,0.406671 -2.946063,0.99923 -4.118557,1.513475 -1.172494,0.514245 -1.908195,0.951598 -2.493901,1.367945 -0.585707,0.416348 -1.01089,0.802165 -1.544955,1.418917 -0.534064,0.616753 -1.171717,1.459613 -1.72945,2.35626 -0.557734,0.896646 -1.035495,1.846959 -1.462179,2.890523 -0.426685,1.043563 -0.802269,2.180258 -1.038014,2.937045 -0.235746,0.756786 -0.33165,1.133606 -0.495152,1.902036 -0.163503,0.768429 -0.398382,1.947375 -0.593967,3.304814 -0.195585,1.357439 -0.353772,2.90274 -0.432856,4.000492 -0.07908,1.097751 -0.07908,1.728163 -0.0552,2.430497 0.02388,0.702334 0.07162,1.46668 0.15998,2.28331 0.08836,0.81663 0.220141,1.704647 0.345881,2.399604 0.12574,0.694957 0.24682,1.206388 0.307325,1.461955 0.0605,0.255566 0.06049,0.255566 -0.380063,0.802439 z"
       id="path1027"
       inkscape:path-effect="#path-effect1029"
       inkscape:original-d="m 75.338966,83.354753 c -0.880814,1.093978 -1.76189,2.187694 -2.64323,3.281145 -0.314955,-0.400642 -0.630161,-0.801536 -0.945637,-1.2027 -2.521482,-6.494264 -5.043125,-12.988533 -7.565086,-19.483199 0.236681,-0.469869 0.473083,-0.939983 0.709229,-1.41037 2.600815,0.985319 5.201259,1.970336 7.801494,2.95511 0.945917,-2.639687 1.891535,-5.358336 2.836905,-8.037901 1.497552,-2.285069 2.994779,-4.570309 4.49177,-6.85586 3.230359,-1.024194 6.460323,-2.048613 9.690089,-3.073315 1.578129,-0.03914 3.155929,-0.07854 4.733499,-0.118205 0,-0.236413 0,-0.472818 0,-0.709226 2.65e-4,-1.536425 2.65e-4,-3.073051 0,-4.609973 -4.72889,-3.821756 -9.457856,-7.643622 -14.18718,-11.465833 0.591298,-0.630171 1.182309,-1.26058 1.773068,-1.89127 10.993498,0.118472 21.986293,0.236675 32.979043,0.354613 0.31548,0.748908 0.63068,1.49752 0.94563,2.245886 -5.82271,3.467664 -11.64544,6.934925 -17.468564,10.401991 2.65e-4,1.85217 2.65e-4,3.704002 0,5.555609 0.503931,2.65e-4 1.007576,2.65e-4 1.510964,0 3.50707,0.473091 7.01373,0.945899 10.5202,1.418453 2.52201,1.773367 5.04365,3.625201 7.56508,5.437404 1.33994,3.54647 2.67957,7.013728 4.01895,10.520196 0.74891,0.535355 1.49752,1.070425 2.24589,1.60524 0.90652,-2.150319 1.81273,-4.300818 2.7187,-6.451624 0.6701,0.197276 1.33992,0.39428 2.00948,0.591024 -1.41822,7.674168 -2.83665,15.347764 -4.25536,23.02125 -1.30002,0.846815 -2.60024,1.693333 -3.90075,2.5396 -0.74838,-1.314026 -1.49699,-2.628267 -2.24588,-3.942799 0.27967,-1.925992 0.55906,-3.852172 0.8382,-5.778656 -0.004,-1.015728 -0.009,-2.031683 -0.0142,-3.047921 -0.0971,-1.228608 -0.19453,-2.457434 -0.2922,-3.686551 -0.46641,-2.233403 -0.93307,-4.466984 -1.4,-6.700871 -0.34158,-0.956816 -0.68341,-1.913859 -1.02551,-2.871185 -0.45721,-0.881242 -0.92352,-1.776912 -1.38568,-2.665767 -0.54357,-0.724244 -1.08739,-1.448723 -1.63148,-2.17348 -0.72715,-0.623136 -1.45454,-1.24651 -2.1822,-1.870162 -0.83484,-0.422752 -1.6699,-0.845754 -2.50525,-1.269027 -1.60345,-0.520777 -3.20711,-1.041797 -4.81106,-1.563089 -1.12351,-0.195646 -2.24725,-0.391549 -3.37127,-0.587722 -1.076485,-0.07717 -2.153188,-0.154599 -3.230177,-0.232294 -1.310889,0.05328 -2.620065,0.106098 -3.930494,0.158753 -0.61727,0.07903 -1.234781,0.157787 -1.852567,0.236284 -1.060318,0.223956 -2.120858,0.44764 -3.181684,0.671062 -1.605129,0.58955 -3.218119,1.182489 -4.827574,1.773338 -0.735465,0.437634 -1.471165,0.874988 -2.207146,1.312085 -0.435012,0.395954 -0.860549,0.781381 -1.291222,1.171673 -0.637413,0.843158 -1.275064,1.68602 -1.912996,2.528633 -0.477515,0.950614 -0.955275,1.900928 -1.433311,2.850997 -0.375336,1.137002 -0.75092,2.273697 -1.126773,3.410151 -0.09564,0.377095 -0.191546,0.753914 -0.287714,1.130474 -0.23123,1.160204 -0.465722,2.339227 -0.698979,3.508444 -0.157929,1.54563 -0.316116,3.090931 -0.474572,4.636003 2.65e-4,0.650401 2.65e-4,1.280813 0,1.920822 0.04801,0.764643 0.09575,1.52899 0.143229,2.293088 0.128718,0.869217 0.260996,1.757161 0.391094,2.635345 0.121351,0.511718 0.24243,1.023149 0.363249,1.534327 z" />
    <path
       style="fill:#ffffff;fill-opacity:1;stroke:#000000;stroke-width:1;stroke-linecap:round;stroke-linejoin:round;paint-order:markers stroke fill"
       d="m 93.80801,35.067295 c 2.282282,-0.157587 6.48441,-0.23639 8.58535,-0.118048 2.10094,0.118342 2.10094,0.433548 0.94888,1.615473 -1.15207,1.181926 -3.456124,3.230763 -4.789914,4.156788 -1.333789,0.926026 -1.697552,0.729022 -2.827727,-0.295389 -1.130176,-1.024412 -3.026635,-2.876245 -3.793865,-3.920539 -0.767229,-1.044294 -0.405005,-1.280697 1.877276,-1.438285 z"
       id="path6707"
       inkscape:path-effect="#path-effect6709"
       inkscape:original-d="m 91.887899,34.988515 c 4.202398,-0.07854 8.404531,-0.157339 12.606401,-0.236407 2.6e-4,0.315481 2.6e-4,0.630687 0,0.945634 -2.30388,2.049184 -4.607936,4.09802 -6.912301,6.146633 -0.363513,-0.196747 -0.727276,-0.39375 -1.091311,-0.591024 -1.896268,-1.851641 -3.792728,-3.703473 -5.689489,-5.555609 0.362506,-0.236149 0.724731,-0.472551 1.0867,-0.709227 z" />
    <path
       style="fill:#f6d7d2;fill-opacity:1;stroke:#000000;stroke-width:1;stroke-linecap:round;stroke-linejoin:round;paint-order:markers stroke fill"
       d="m 66.746368,66.020256 c 0.669922,0.752926 2.009521,2.258501 3.159819,5.695468 1.150299,3.436968 2.111457,8.805094 2.483092,11.476816 0.371635,2.671722 0.153503,2.647206 -0.351504,1.776084 -0.505008,-0.871122 -1.307505,-2.612487 -2.318617,-5.085089 -1.011113,-2.472601 -2.236147,-5.687982 -3.087222,-8.001444 -0.851074,-2.313461 -1.319681,-3.699877 -1.556155,-4.664062 -0.236474,-0.964184 -0.236474,-1.493533 -0.03014,-1.74626 0.206334,-0.252727 0.618705,-0.228574 0.824756,-0.216505 0.20605,0.01207 0.20605,0.01207 0.875972,0.764992 z"
       id="path6927"
       inkscape:path-effect="#path-effect6929"
       inkscape:original-d="m 66.076446,65.267331 c 1.33986,1.505837 2.679459,3.011411 4.01879,4.516718 0.961462,5.368605 1.922619,10.736731 2.88353,16.104698 -0.217877,-0.02426 -0.43601,-0.04877 -0.65441,-0.07355 -0.792065,-1.717476 -1.593969,-3.459114 -2.391349,-5.189069 -1.22482,-3.215248 -2.449854,-6.430629 -3.675176,-9.64634 -0.472586,-1.41264 -0.945417,-2.797628 -1.418524,-4.196837 2.64e-4,-0.529106 2.64e-4,-1.058455 0,-1.588079 0.412652,0.02442 0.825024,0.04857 1.237139,0.07246 z" />
    <path
       style="fill:#f6d7d2;fill-opacity:1;stroke:#000000;stroke-width:1;stroke-linecap:round;stroke-linejoin:round;paint-order:markers stroke fill"
       d="m 121.78302,85.025184 c -0.27866,-1.380845 0.0267,-4.629264 0.43005,-7.623877 0.4034,-2.994612 0.90489,-5.735277 1.29072,-7.438217 0.38583,-1.702941 0.656,-2.367999 1.21138,-3.356427 0.55538,-0.988428 1.39593,-2.300094 1.926,-3.038204 0.53008,-0.73811 0.74956,-0.90253 0.94797,-0.689083 0.19842,0.213447 0.3757,0.804394 0.25772,2.650369 -0.11798,1.845976 -0.53108,4.946934 -1.07427,7.90449 -0.54318,2.957557 -1.2164,5.771567 -1.73575,7.74752 -0.51934,1.975952 -0.88478,3.113767 -1.49871,3.925807 -0.61393,0.812039 -1.47644,1.298468 -1.75511,-0.08238 z"
       id="path8080"
       inkscape:path-effect="#path-effect8082"
       inkscape:original-d="m 121.19907,86.89252 c 0.30558,-3.248154 0.61089,-6.496573 0.91593,-9.745257 0.50178,-2.740512 1.00327,-5.481177 1.5045,-8.222163 0.27044,-0.664821 0.54061,-1.329877 0.81051,-1.995214 0.84085,-1.311453 1.6814,-2.623119 2.5217,-3.935074 0.21976,-0.164164 0.43924,-0.328586 0.65846,-0.493276 0.17756,0.591235 0.35484,1.182182 0.53186,1.772877 -0.41286,3.101346 -0.82596,6.202305 -1.23933,9.30306 -0.67299,2.814391 -1.3462,5.628404 -2.0197,8.442208 -0.36519,1.138127 -0.73062,2.275944 -1.09633,3.413517 -0.86229,0.486717 -1.7248,0.973148 -2.5876,1.459322 z" />
    <rect
       style="fill:#a8a8a8;fill-opacity:1;stroke:#661bec;stroke-width:5;stroke-linecap:round;stroke-linejoin:round;stroke-dasharray:none;stroke-opacity:1;paint-order:markers stroke fill"
       id="rect9588"
       width="38.919998"
       height="27.187021"
       x="77.518501"
       y="139.33577" />
  </g>
</svg>
