<?xml version="1.0" encoding="UTF-8" standalone="no"?>
<svg
   width="196.98mm"
   height="223.17mm"
   version="1.1"
   viewBox="0 0 196.98 223.17"
   id="svg28"
   sodipodi:docname="avatarWithCap.svg"
   inkscape:version="1.2.1 (9c6d41e410, 2022-07-14)"
   xmlns:inkscape="http://www.inkscape.org/namespaces/inkscape"
   xmlns:sodipodi="http://sodipodi.sourceforge.net/DTD/sodipodi-0.dtd"
   xmlns="http://www.w3.org/2000/svg"
   xmlns:svg="http://www.w3.org/2000/svg"
   xmlns:rdf="http://www.w3.org/1999/02/22-rdf-syntax-ns#"
   xmlns:cc="http://creativecommons.org/ns#"
   xmlns:dc="http://purl.org/dc/elements/1.1/">
  <defs
     id="defs32" />
  <sodipodi:namedview
     id="namedview30"
     pagecolor="#ffffff"
     bordercolor="#000000"
     borderopacity="0.25"
     inkscape:showpageshadow="2"
     inkscape:pageopacity="0.0"
     inkscape:pagecheckerboard="0"
     inkscape:deskcolor="#d1d1d1"
     inkscape:document-units="mm"
     showgrid="false"
     inkscape:zoom="1.1191767"
     inkscape:cx="424.86588"
     inkscape:cy="299.77393"
     inkscape:window-width="1440"
     inkscape:window-height="830"
     inkscape:window-x="-6"
     inkscape:window-y="-6"
     inkscape:window-maximized="1"
     inkscape:current-layer="svg28" />
  <metadata
     id="metadata2">
    <rdf:RDF>
      <cc:Work
         rdf:about="">
        <dc:format>image/svg+xml</dc:format>
        <dc:type
           rdf:resource="http://purl.org/dc/dcmitype/StillImage" />
        <dc:title />
      </cc:Work>
    </rdf:RDF>
  </metadata>
  <path
     d="m171.08 201.58-61.295-21.409-52.385 38.356 1.4199-64.91-52.667-37.968 62.172-18.708 19.835-61.822 37.005 53.348 64.926-0.23961-39.302 51.679z"
     style="fill-rule:evenodd;fill:#f1591b;stroke-opacity:.71888;stroke-width:2.5134;stroke:#000"
     id="path4" />
  <g
     transform="translate(97.582 77.816)"
     id="g26">
    <path
       d="m-47.013 124.61s-6.9183-45.64 0-65.027c5.3218-14.913 17.27-24.74 28.56-30.012 11.289-5.2726 24.41-5.2726 35.699 0s23.238 15.099 28.56 30.012c6.9183 19.387 0 65.027 0 65.027z"
       style="fill:#47535a;stroke-width:.22361px;stroke:#000"
       id="path6" />
    <path
       d="m-19.46 37.4s-29.326-6.3154-39.502 2.1382c-15.4 12.792-17.985 37.983-14.581 58.532 0.51273 3.0956 12.317 3.3313 12.991 0.26727 3.7071-16.853-1.4082-30.669 9.2791-40.091 4.9326-4.3486 19.354-3.4745 19.354-3.4745z"
       style="fill:#47535a;stroke-width:.26352px;stroke:#000"
       id="path8" />
    <path
       d="m19.46 37.4s29.326-6.3154 39.502 2.1382c15.4 12.792 17.985 37.983 14.581 58.532-0.51273 3.0956-12.317 3.3313-12.991 0.26727-3.7071-16.853 1.4082-30.669-9.2791-40.091-4.9326-4.3486-19.354-3.4745-19.354-3.4745z"
       style="fill:#47535a;stroke-width:.26352px;stroke:#000"
       id="path10" />
    <path
       d="M -5.5632,30 V 20 c 0,0 -11.953,-4.7647 -14.879,-10 -3.7368,-6.6857 -3.1222,-15.633 -0.99195,-23 1.1295,-3.9063 3.3637,-8.121 6.9436,-10 8.2118,-4.3103 19.563,-4.3103 27.774,0 3.5799,1.879 5.8141,6.0938 6.9436,10 2.1302,7.3673 2.7448,16.314 -0.99195,23 -2.9262,5.2354 -14.879,10 -14.879,10 v 10"
       style="display:inline;fill:#f6d7d2;stroke:#000000;stroke-width:0.26393"
       id="path12" />
    <ellipse
       cx="-7"
       cy="-8.8909"
       rx="3.866"
       ry="2.9751"
       style="fill-rule:evenodd;fill:#fff;stroke-width:.26794;stroke:#000"
       id="ellipse14" />
    <ellipse
       cx="6.9123"
       cy="-8.8909"
       rx="3.7798"
       ry="2.9766"
       style="fill-rule:evenodd;fill:#fff;stroke-width:.265;stroke:#000"
       id="ellipse16" />
    <ellipse
       cx="-6.7808"
       cy="-8.7879"
       rx="1.0867"
       ry=".75595"
       style="fill-rule:evenodd;stroke-width:.265;stroke:#000"
       id="ellipse18" />
    <ellipse
       cx="6.7812"
       cy="-8.7875"
       rx="1.0867"
       ry=".75595"
       style="fill-rule:evenodd;stroke-width:.265;stroke:#000"
       id="ellipse20" />
    <ellipse
       cx="-6.2585e-7"
       cy="6.214"
       rx="9.8681"
       ry="3.9428"
       style="fill-rule:evenodd;fill:#fff;stroke-width:.26385;stroke:#000"
       id="ellipse22" />
    <ellipse
       cx="1.5368"
       cy="8.8198996"
       rx="3.4077001"
       ry="1.2027"
       style="display:inline;fill:#b5535a;fill-rule:evenodd;stroke:#000000;stroke-width:0.265"
       id="ellipse24" />
  </g>
  <g
     id="g13834"
     inkscape:label="hat">
    <path
       style="fill:#f154a1;stroke:#2a2626;stroke-width:1;stroke-linecap:round;stroke-linejoin:round;paint-order:markers stroke fill;stroke-dasharray:none;fill-opacity:1"
       d="m 71.395486,60.039777 c 0,0 4.784532,-8.366468 6.726514,-12.767345 1.738685,-3.940168 1.494157,-8.960833 4.384704,-12.153432 4.118438,-4.5488 10.480836,-8.178482 16.612096,-7.931978 5.26332,0.211609 10.37071,3.823903 13.66784,7.931978 2.93161,3.652652 2.20514,9.179923 4.25536,13.390958 1.95422,4.013859 7.54548,11.065083 7.54548,11.065083 0,0 -17.94608,3.001644 -27.005481,3.065233 -8.771557,0.06157 -26.186513,-2.600497 -26.186513,-2.600497 z"
       id="path3101"
       sodipodi:nodetypes="cssssscsc" />
    <path
       style="fill:#f154a1;fill-opacity:1;stroke:#f58abe;stroke-width:1;stroke-linecap:round;stroke-linejoin:round;stroke-dasharray:none;paint-order:markers stroke fill;stroke-opacity:1"
       d="m 83.736713,48.905244 c 0,0 7.058534,2.228322 10.711286,2.67803 3.639819,0.448116 7.408031,0.730208 11.001901,0 2.51218,-0.510429 7.08073,-3.001248 7.08073,-3.001248"
       id="path9852"
       sodipodi:nodetypes="cssc" />
    <path
       style="fill:#f154a1;fill-opacity:1;stroke:#f58abe;stroke-width:1;stroke-linecap:round;stroke-linejoin:round;stroke-dasharray:none;paint-order:markers stroke fill;stroke-opacity:1"
       d="m 88.159898,35.119 c 0,0 7.24632,2.061275 10.958902,1.997197 3.12307,-0.0539 9.1553,-1.997197 9.1553,-1.997197"
       id="path11306"
       sodipodi:nodetypes="csc" />
  </g>
</svg>
