<?xml version="1.0" encoding="UTF-8"?>
<svg width="196.98mm" height="223.17mm" version="1.1" viewBox="0 0 196.98 223.17" xmlns="http://www.w3.org/2000/svg" xmlns:cc="http://creativecommons.org/ns#" xmlns:dc="http://purl.org/dc/elements/1.1/" xmlns:rdf="http://www.w3.org/1999/02/22-rdf-syntax-ns#">
 <defs>
  <filter id="filter3160" x="-.045814" y="-.044124" width="1.0916" height="1.0882" style="color-interpolation-filters:sRGB">
   <feGaussianBlur stdDeviation="3.1997854"/>
  </filter>
 </defs>
 <metadata>
  <rdf:RDF>
   <cc:Work rdf:about="">
    <dc:format>image/svg+xml</dc:format>
    <dc:type rdf:resource="http://purl.org/dc/dcmitype/StillImage"/>
    <dc:title/>
   </cc:Work>
  </rdf:RDF>
 </metadata>
 <g transform="translate(97.881 76.445)" style="fill:#1abaae;filter:url(#filter3160);stroke:#000">
  <path d="m-3.0508 14.027c-12.666 0.61551-24.795 5.9542-34.619 13.826-10.091 8.0045-18.035 19.012-21.36 31.542-2.9579 11.474-2.8084 23.437-2.4321 35.194 0.51536 13.967 2.4074 27.832 4.308 41.664h113.1c2.83-20.056 5.3148-40.314 4.2521-60.61-0.39612-10.606-2.8535-21.324-8.3873-30.469-8.9621-14.523-23.594-25.591-40.205-29.716-4.7834-1.1725-9.7408-1.5854-14.658-1.4317z" style="fill:#1abaae;stroke-width:.22361px;stroke:#000"/>
  <path d="m-42.107 26.176c-6.9245 0.13022-14.103 1.1319-20.133 4.7656-6.2322 4.0782-10.856 10.204-14.234 16.76-5.2835 10.399-7.236 22.181-7.3239 33.759-0.02114 6.0335 0.33982 12.097 1.5129 18.024 0.33292 1.6005 0.75252 3.2405 1.8383 4.5126 2.5029 3.2747 6.5834 5.0071 10.621 5.3094 5.0557 0.64439 10.548-0.18216 14.662-3.3632 2.7934-2.4448 3.7525-6.2453 4.168-9.791 1.2495-7.52 0.78616-15.319 1.8555-22.744 0.33906-2.5417 0.89349-5.2088 2.6357-7.1915 1.061-1.3041 2.8091-1.7431 4.3187-1.9657 4.6941-0.70714 9.4677-0.50647 14.19-0.30185 1.0481-0.05419 1.303-1.2172 1.9064-1.8677 7.3093-10.19 14.618-20.382 21.928-30.572-12.442-2.9263-25.1-5.5057-37.945-5.334z" style="fill:#1abaae;stroke-width:.26352px;stroke:#000"/>
  <path d="m39.016 26.184c-11.833 0.16563-23.424 2.8009-34.959 5.1875 7.7814 10.841 15.558 21.685 23.34 32.525 5.7999-0.0207 11.77-0.7209 17.406 1.0184 2.1166 0.93578 3.0771 3.2625 3.7298 5.3308 1.3621 4.7749 1.0937 9.7443 1.4523 14.644 0.32721 5.8359 0.5945 11.809 2.5998 17.36 1.3948 3.5155 4.9055 5.7388 8.4613 6.6079 2.749 0.64059 5.6158 0.75994 8.4224 0.5111 3.6806-0.39242 7.4285-1.6718 10.119-4.2964 2.3941-2.4843 3.15-6.0292 3.3515-9.3644 1.601-12.993 1.2304-26.437-2.793-38.978-2.9143-9.1618-7.9132-17.898-15.434-24.038-4.966-4.0428-11.4-5.7141-17.671-6.2498-2.6673-0.23961-5.3485-0.28433-8.0254-0.25881z" style="fill:#1abaae;stroke-width:.26352px;stroke:#000"/>
  <path d="m-2.5996-37.789c-7.8074 0.45282-15.756 2.7736-21.834 7.8555-5.2241 4.9353-8.0664 11.882-9.3234 18.848-1.5796 8.3436-1.2371 17.301 2.3976 25.087 2.7373 5.6969 7.8793 9.8027 13.304 12.807 0.53374 0.24258 1.0747 0.47351 0.85928 1.1622-0.0036 4.5577-0.0083 9.1154-0.01113 13.673h33.207v-14.391c5.6583-3.0351 10.994-7.2376 13.976-13.047 3.4988-6.8846 4.0314-14.904 3.0168-22.456-0.94963-7.4832-3.5883-14.989-8.7098-20.652-5.1869-5.1817-12.433-7.8061-19.619-8.5633-2.4102-0.28214-4.8397-0.31304-7.2638-0.32541z" style="fill:#1abaae;stroke-width:.26393;stroke:#000"/>
  <ellipse cx="-7" cy="-8.8909" rx="3.866" ry="2.9751" style="fill-rule:evenodd;fill:#1abaae;stroke-width:.26794;stroke:#000"/>
  <ellipse cx="6.9123" cy="-8.8909" rx="3.7798" ry="2.9766" style="fill-rule:evenodd;fill:#1abaae;stroke-width:.265;stroke:#000"/>
  <ellipse cx="-6.7808" cy="-8.7879" rx="1.0867" ry=".75595" style="fill-rule:evenodd;fill:#1abaae;stroke-width:.265;stroke:#000"/>
  <ellipse cx="6.7812" cy="-8.7875" rx="1.0867" ry=".75595" style="fill-rule:evenodd;fill:#1abaae;stroke-width:.265;stroke:#000"/>
  <ellipse cx="-6.2585e-7" cy="6.214" rx="9.8681" ry="3.9428" style="fill-rule:evenodd;fill:#1abaae;stroke-width:.26385;stroke:#000"/>
  <ellipse cx="1.5368" cy="8.8199" rx="3.4077" ry="1.2027" style="fill-rule:evenodd;fill:#1abaae;stroke-width:.265;stroke:#000"/>
 </g>
 <g transform="translate(97.582 77.816)">
  <path d="m-47.013 124.61s-6.9183-45.64 0-65.027c5.3218-14.913 17.27-24.74 28.56-30.012 11.289-5.2726 24.41-5.2726 35.699 0s23.238 15.099 28.56 30.012c6.9183 19.387 0 65.027 0 65.027z" style="fill:#47535a;stroke-width:.22361px;stroke:#000"/>
  <path d="m-19.46 37.4s-29.326-6.3154-39.502 2.1382c-15.4 12.792-17.985 37.983-14.581 58.532 0.51273 3.0956 12.317 3.3313 12.991 0.26727 3.7071-16.853-1.4082-30.669 9.2791-40.091 4.9326-4.3486 19.354-3.4745 19.354-3.4745z" style="fill:#47535a;stroke-width:.26352px;stroke:#000"/>
  <path d="m19.46 37.4s29.326-6.3154 39.502 2.1382c15.4 12.792 17.985 37.983 14.581 58.532-0.51273 3.0956-12.317 3.3313-12.991 0.26727-3.7071-16.853 1.4082-30.669-9.2791-40.091-4.9326-4.3486-19.354-3.4745-19.354-3.4745z" style="fill:#47535a;stroke-width:.26352px;stroke:#000"/>
  <path d="m-5.5632 30v-10s-11.953-4.7647-14.879-10c-3.7368-6.6857-3.1222-15.633-0.99195-23 1.1295-3.9063 3.3637-8.121 6.9436-10 8.2118-4.3103 19.563-4.3103 27.774 0 3.5799 1.879 5.8141 6.0938 6.9436 10 2.1302 7.3673 2.7448 16.314-0.99195 23-2.9262 5.2354-14.879 10-14.879 10v10" style="fill:#f6d7d2;stroke-width:.26393;stroke:#000"/>
  <ellipse cx="-7" cy="-8.8909" rx="3.866" ry="2.9751" style="fill-rule:evenodd;fill:#fff;stroke-width:.26794;stroke:#000"/>
  <ellipse cx="6.9123" cy="-8.8909" rx="3.7798" ry="2.9766" style="fill-rule:evenodd;fill:#fff;stroke-width:.265;stroke:#000"/>
  <ellipse cx="-6.7808" cy="-8.7879" rx="1.0867" ry=".75595" style="fill-rule:evenodd;stroke-width:.265;stroke:#000"/>
  <ellipse cx="6.7812" cy="-8.7875" rx="1.0867" ry=".75595" style="fill-rule:evenodd;stroke-width:.265;stroke:#000"/>
  <ellipse cx="-6.2585e-7" cy="6.214" rx="9.8681" ry="3.9428" style="fill-rule:evenodd;fill:#fff;stroke-width:.26385;stroke:#000"/>
  <ellipse cx="1.5368" cy="8.8199" rx="3.4077" ry="1.2027" style="fill-rule:evenodd;fill:#b5535a;stroke-width:.265;stroke:#000"/>
 </g>
</svg>
