<?xml version="1.0" encoding="UTF-8"?>
<svg width="196.98mm" height="223.17mm" version="1.1" viewBox="0 0 196.98 223.17" xmlns="http://www.w3.org/2000/svg" xmlns:cc="http://creativecommons.org/ns#" xmlns:dc="http://purl.org/dc/elements/1.1/" xmlns:rdf="http://www.w3.org/1999/02/22-rdf-syntax-ns#">
 <metadata>
  <rdf:RDF>
   <cc:Work rdf:about="">
    <dc:format>image/svg+xml</dc:format>
    <dc:type rdf:resource="http://purl.org/dc/dcmitype/StillImage"/>
   </cc:Work>
  </rdf:RDF>
 </metadata>
 <path d="m171.08 201.58-61.295-21.409-52.385 38.356 1.4199-64.91-52.667-37.968 62.172-18.708 19.835-61.822 37.005 53.348 64.926-0.23961-39.302 51.679z" style="display:none;fill-rule:evenodd;fill:#f1591b;stroke-opacity:.71888;stroke-width:2.5134;stroke:#000"/>
 <g transform="translate(97.582,77.816)">
  <path d="m-47.013 124.61s-6.9183-45.64 0-65.027c5.3218-14.913 17.27-24.74 28.56-30.012 11.289-5.2726 24.41-5.2726 35.699 0s23.238 15.099 28.56 30.012c6.9183 19.387 0 65.027 0 65.027z" style="fill:#47535a;stroke-width:.22361px;stroke:#000"/>
  <path d="m-19.46 37.4s-29.326-6.3154-39.502 2.1382c-15.4 12.792-17.985 37.983-14.581 58.532 0.51273 3.0956 12.317 3.3313 12.991 0.26727 3.7071-16.853-1.4082-30.669 9.2791-40.091 4.9326-4.3486 19.354-3.4745 19.354-3.4745z" style="fill:#47535a;stroke-width:.26352px;stroke:#000"/>
  <path d="m19.46 37.4s29.326-6.3154 39.502 2.1382c15.4 12.792 17.985 37.983 14.581 58.532-0.51273 3.0956-12.317 3.3313-12.991 0.26727-3.7071-16.853 1.4082-30.669-9.2791-40.091-4.9326-4.3486-19.354-3.4745-19.354-3.4745z" style="fill:#47535a;stroke-width:.26352px;stroke:#000"/>
  <path d="m-5.5632 30v-10s-11.953-4.7647-14.879-10c-3.7368-6.6857-3.1222-15.633-0.99195-23 1.1295-3.9063 3.3637-8.121 6.9436-10 8.2118-4.3103 19.563-4.3103 27.774 0 3.5799 1.879 5.8141 6.0938 6.9436 10 2.1302 7.3673 2.7448 16.314-0.99195 23-2.9262 5.2354-14.879 10-14.879 10v10" style="fill:#f6d7d2;stroke-width:.26393;stroke:#000"/>
  <ellipse cx="-7" cy="-8.8909" rx="3.866" ry="2.9751" style="fill-rule:evenodd;fill:#fff;stroke-width:.26794;stroke:#000"/>
  <ellipse cx="6.9123" cy="-8.8909" rx="3.7798" ry="2.9766" style="fill-rule:evenodd;fill:#fff;stroke-width:.265;stroke:#000"/>
  <ellipse cx="-6.7808" cy="-8.7879" rx="1.0867" ry=".75595" style="fill-rule:evenodd;stroke-width:.265;stroke:#000"/>
  <ellipse cx="6.7812" cy="-8.7875" rx="1.0867" ry=".75595" style="fill-rule:evenodd;stroke-width:.265;stroke:#000"/>
  <ellipse cx="-6.2585e-7" cy="6.214" rx="9.8681" ry="3.9428" style="fill-rule:evenodd;fill:#fff;stroke-width:.26385;stroke:#000"/>
  <ellipse cx="1.5368" cy="8.8199" rx="3.4077" ry="1.2027" style="fill-rule:evenodd;fill:#b5535a;stroke-width:.265;stroke:#000"/>
 </g>
 <g style="display:none">
  <path d="m71.395 60.04s4.7845-8.3665 6.7265-12.767c1.7387-3.9402 1.4942-8.9608 4.3847-12.153 4.1184-4.5488 10.481-8.1785 16.612-7.932 5.2633 0.21161 10.371 3.8239 13.668 7.932 2.9316 3.6527 2.2051 9.1799 4.2554 13.391 1.9542 4.0139 7.5455 11.065 7.5455 11.065s-17.946 3.0016-27.005 3.0652c-8.7716 0.06157-26.187-2.6005-26.187-2.6005z" style="fill:#f154a1;paint-order:markers stroke fill;stroke-linecap:round;stroke-linejoin:round;stroke:#2a2626"/>
  <path d="m83.737 48.905s7.0585 2.2283 10.711 2.678c3.6398 0.44812 7.408 0.73021 11.002 0 2.5122-0.51043 7.0807-3.0012 7.0807-3.0012" style="fill:#f154a1;paint-order:markers stroke fill;stroke-linecap:round;stroke-linejoin:round;stroke:#f58abe"/>
  <path d="m88.16 35.119s7.2463 2.0613 10.959 1.9972c3.1231-0.0539 9.1553-1.9972 9.1553-1.9972" style="fill:#f154a1;paint-order:markers stroke fill;stroke-linecap:round;stroke-linejoin:round;stroke:#f58abe"/>
 </g>
 <g style="display:none">
  <path d="m97.094 34.003a24.562 22.809 0 0 0-24.562 22.808 24.562 22.809 0 0 0 0.91674 6.1195h47.29a24.562 22.809 0 0 0 0.91725-6.1195 24.562 22.809 0 0 0-24.562-22.808z" style="fill:#7ea5de;mix-blend-mode:normal;paint-order:markers stroke fill;stroke-linecap:round;stroke-linejoin:round;stroke:#000"/>
  <path d="m95.832 35.435c-0.7704 1.4314-2.3111 4.2942-3.3867 6.9693s-1.686 5.1625-2.4564 8.5525c-0.77038 3.39-1.7006 7.6824-2.1658 9.8641s-0.46512 2.2524 2.7218 2.2901c3.187 0.03771 9.5604 0.04263 12.764 0.0073 3.2038-0.03532 3.2383-0.11102 2.9126-1.673-0.32576-1.562-1.0119-4.6102-1.8229-7.8686-0.811-3.2584-1.7469-6.7266-2.9852-10.024s-2.779-6.4231-3.6312-7.9863c-0.8522-1.5632-1.016-1.5632-1.098-1.5632s-0.08201 1.8e-5 -0.85241 1.4314z" style="fill:#e65e5e;paint-order:markers stroke fill;stroke-linecap:round;stroke-linejoin:round;stroke:#000"/>
  <path d="m95.13 34.195c-1.5543 0.19155-4.6631 0.57468-8.0189 1.8225s-6.9581 3.3602-9.6361 6.4851c-2.678 3.1249-4.4313 7.262-4.9482 10.836-0.51693 3.5737 0.20242 6.5835 0.56515 8.1376s0.36844 1.6454 2.6109 1.6804c2.2425 0.03498 6.721 0.01041 9.0362-0.03703s2.467-0.11768 2.7628-1.3067c0.2958-1.1891 0.74079-3.5238 1.2276-5.7436s1.0179-4.3378 1.4383-6.3517c0.42046-2.0139 0.73024-3.9236 1.4283-5.968 0.69802-2.0444 1.7842-4.2234 2.6373-5.8701 0.85308-1.6467 1.473-2.7612 1.8428-3.3185 0.36977-0.55728 0.4891-0.55729 0.54863-0.55729s0.05955-1e-6 -1.4947 0.19155z" style="fill:#f1cf51;paint-order:markers stroke fill;stroke-linecap:round;stroke-linejoin:round;stroke:#000"/>
  <path d="m96.685 33.254c-0.08201-0.74957-0.08201-2.249 0.07465-2.9709 0.15666-0.72195 0.46967-0.66623 0.55139 0.08358 0.08172 0.74981-0.06753 2.1935-0.2239 2.9152-0.15636 0.72173-0.32012 0.72173-0.40214-0.02785z" style="fill:#e65e5e;paint-order:markers stroke fill;stroke-linecap:round;stroke-linejoin:round;stroke:#000"/>
  <path d="m100.56 27.17c3.9479-1.6517 11.454-4.7184 15.914-6.1137 4.4604-1.3954 5.8752-1.1195 6.6416-0.23289 0.7664 0.88666 0.8846 2.3839-0.53381 3.5855-1.4184 1.2016-4.3735 2.1078-9.0879 2.873s-11.188 1.3894-14.23 1.583c-3.0419 0.19366-2.6519-0.04316 1.2961-1.6949z" style="fill:#ccd2dc;paint-order:markers stroke fill;stroke-linecap:round;stroke-linejoin:round;stroke:#000"/>
  <path d="m93.941 30.674c-3.9479 1.6517-11.454 4.7184-15.914 6.1137-4.4604 1.3954-5.8752 1.1195-6.6416 0.23289-0.76639-0.88666-0.8846-2.3839 0.53382-3.5855 1.4184-1.2016 4.3735-2.1078 9.0879-2.873s11.188-1.3894 14.23-1.583 2.6519 0.04316-1.296 1.6949z" style="fill:#ccd2dc;paint-order:markers stroke fill;stroke-linecap:round;stroke-linejoin:round;stroke:#000"/>
  <ellipse cx="96.998" cy="29.296" rx="1.1702" ry=".71046" style="fill:#7ea5de;paint-order:markers stroke fill;stroke-linecap:round;stroke-linejoin:round;stroke:#000"/>
 </g>
 <g>
  <path d="m74.898 83.902c-0.44055 0.54687-1.3216 1.6406-1.9196 1.9871s-0.91323-0.05436-2.3318-3.5021c-1.4185-3.4477-3.9402-9.942-5.0829-13.424s-0.90632-3.9525 0.51234-3.695c1.4187 0.25747 4.0191 1.2425 5.7858 0.41287 1.7667-0.82962 2.7247-3.5439 3.9462-6.0263 1.2215-2.4824 2.7187-4.7676 5.0825-6.4225 2.3638-1.6549 5.5937-2.6793 7.9977-3.2112 2.404-0.5319 3.9818-0.5713 4.7706-0.7092 0.78879-0.1379 0.78879-0.37431 0.78879-1.2607 0-0.88642 0-2.423-2.3644-5.1024-2.3644-2.6794-7.0934-6.5012-9.1626-8.7275-2.0692-2.2263-1.4782-2.8567 4.3141-3.1128 5.7923-0.25611 16.785-0.13791 22.439 0.29567s5.9692 1.1822 3.2153 3.29c-2.7539 2.1078-8.5766 5.5751-11.488 8.2349-2.9115 2.6598-2.9115 4.5116-2.6595 5.4374 0.25197 0.9258 0.75561 0.9258 2.7609 1.1622 2.0052 0.23643 5.5119 0.70924 8.5168 1.8453 3.0049 1.136 5.5452 2.9619 7.4824 5.6388 1.9372 2.6769 3.2636 6.1492 4.3079 8.17 1.0442 2.0209 1.7928 2.5559 2.6201 1.7481 0.82727-0.80779 1.7335-2.9583 2.5217-3.9351 0.78822-0.97678 1.458-0.77978 1.0835 3.1557-0.3745 3.9355-1.7929 11.609-3.1522 15.869-1.3593 4.26-2.6595 5.1065-3.6839 4.8728-1.0244-0.2337-1.773-1.5479-2.0077-3.1682-0.23472-1.6203 0.0447-3.5465 0.18203-5.0176 0.13735-1.4711 0.13261-2.487 0.0816-3.6095-0.0511-1.1224-0.14846-2.3512-0.43047-4.0825-0.28202-1.7312-0.74868-3.9648-1.1529-5.5602-0.40423-1.5953-0.74606-2.5524-1.146-3.4715s-0.86565-1.8151-1.3685-2.6217c-0.50283-0.80656-1.0466-1.531-1.6822-2.205-0.63559-0.67397-1.363-1.2974-2.1442-1.8206-0.78124-0.52324-1.6163-0.94624-2.8357-1.4183s-2.8231-0.99307-4.1868-1.3516c-1.3637-0.3585-2.4875-0.5544-3.5877-0.69109-1.1003-0.13669-2.177-0.21412-3.3709-0.22637-1.194-0.01225-2.5031 0.04063-3.467 0.10646-0.96386 0.06583-1.5814 0.14459-2.4204 0.29581s-1.8996 0.3749-3.2325 0.78157c-1.3329 0.40667-2.9461 0.99923-4.1186 1.5135s-1.9082 0.9516-2.4939 1.3679c-0.58571 0.41635-1.0109 0.80216-1.545 1.4189-0.53406 0.61675-1.1717 1.4596-1.7294 2.3563-0.55773 0.89665-1.0355 1.847-1.4622 2.8905-0.42668 1.0436-0.80227 2.1803-1.038 2.937-0.23575 0.75679-0.33165 1.1336-0.49515 1.902-0.1635 0.76843-0.39838 1.9474-0.59397 3.3048s-0.35377 2.9027-0.43286 4.0005c-0.07908 1.0978-0.07908 1.7282-0.0552 2.4305s0.07162 1.4667 0.15998 2.2833 0.22014 1.7046 0.34588 2.3996 0.24682 1.2064 0.30732 1.462c0.0605 0.25557 0.06049 0.25557-0.38006 0.80244z" style="fill:#661bec;paint-order:markers stroke fill;stroke-linecap:round;stroke-linejoin:round;stroke:#000"/>
  <path d="m93.808 35.067c2.2823-0.15759 6.4844-0.23639 8.5854-0.11805s2.1009 0.43355 0.94888 1.6155c-1.1521 1.1819-3.4561 3.2308-4.7899 4.1568-1.3338 0.92603-1.6976 0.72902-2.8277-0.29539-1.1302-1.0244-3.0266-2.8762-3.7939-3.9205-0.76723-1.0443-0.405-1.2807 1.8773-1.4383z" style="fill:#fff;paint-order:markers stroke fill;stroke-linecap:round;stroke-linejoin:round;stroke:#000"/>
  <path d="m66.746 66.02c0.66992 0.75293 2.0095 2.2585 3.1598 5.6955 1.1503 3.437 2.1115 8.8051 2.4831 11.477s0.1535 2.6472-0.3515 1.7761c-0.50501-0.87112-1.3075-2.6125-2.3186-5.0851-1.0111-2.4726-2.2361-5.688-3.0872-8.0014-0.85107-2.3135-1.3197-3.6999-1.5562-4.6641-0.23647-0.96418-0.23647-1.4935-0.03014-1.7463s0.6187-0.22857 0.82476-0.2165c0.20605 0.01207 0.20605 0.01207 0.87597 0.76499z" style="fill:#f6d7d2;paint-order:markers stroke fill;stroke-linecap:round;stroke-linejoin:round;stroke:#000"/>
  <path d="m121.78 85.025c-0.27866-1.3808 0.0267-4.6293 0.43005-7.6239 0.4034-2.9946 0.90489-5.7353 1.2907-7.4382 0.38583-1.7029 0.656-2.368 1.2114-3.3564s1.3959-2.3001 1.926-3.0382c0.53008-0.73811 0.74956-0.90253 0.94797-0.68908 0.19842 0.21345 0.3757 0.80439 0.25772 2.6504-0.11798 1.846-0.53108 4.9469-1.0743 7.9045-0.54318 2.9576-1.2164 5.7716-1.7358 7.7475-0.51934 1.976-0.88478 3.1138-1.4987 3.9258-0.61393 0.81204-1.4764 1.2985-1.7551-0.08238z" style="fill:#f6d7d2;paint-order:markers stroke fill;stroke-linecap:round;stroke-linejoin:round;stroke:#000"/>
  <rect x="77.519" y="139.34" width="38.92" height="27.187" style="fill:#a8a8a8;paint-order:markers stroke fill;stroke-linecap:round;stroke-linejoin:round;stroke-width:5;stroke:#661bec"/>
 </g>
</svg>
