<?xml version="1.0" encoding="UTF-8"?>
<!-- Created with Inkscape (http://www.inkscape.org/) -->
<svg width="242" height="362" version="1.1" xmlns="http://www.w3.org/2000/svg" xmlns:cc="http://creativecommons.org/ns#" xmlns:dc="http://purl.org/dc/elements/1.1/" xmlns:rdf="http://www.w3.org/1999/02/22-rdf-syntax-ns#">
 <metadata>
  <rdf:RDF>
   <cc:Work rdf:about="">
    <dc:format>image/svg+xml</dc:format>
    <dc:type rdf:resource="http://purl.org/dc/dcmitype/StillImage"/>
   </cc:Work>
  </rdf:RDF>
 </metadata>
 <g transform="translate(1021 28.638)">
  <g transform="matrix(4 0 0 4 -1260 -1357.1)" fill-rule="evenodd">
   <rect x="60" y="332.36" width="60" height="90" rx="10" ry="10" fill="#fff" stroke="#000" stroke-width=".5"/>
   <rect x="65" y="337.36" width="50" height="80" rx="5" ry="5" fill="#5a5"/>
   <path d="m105 352.36c-22.091 0-40 17.909-40 40 0 5.5228 4.4772 10 10 10 22.091 0 40-17.909 40-40 0-5.5228-4.4772-10-10-10z" fill="#fff"/>
   <path d="m88 362.36-5 5v6l5-5v24h5v-30z" fill="#5a5"/>
   <path d="m70 339.86-2.5 2.5v3l2.5-2.5v12h2.5v-15z" fill="#fff"/>
   <path d="m110 414.86 2.5-2.5v-3l-2.5 2.5v-12h-2.5v15z" fill="#fff"/>
  </g>
 </g>
</svg>
