<?xml version="1.0" encoding="UTF-8"?>
<!-- Created with Inkscape (http://www.inkscape.org/) -->
<svg width="242" height="362" version="1.1" xmlns="http://www.w3.org/2000/svg" xmlns:cc="http://creativecommons.org/ns#" xmlns:dc="http://purl.org/dc/elements/1.1/" xmlns:rdf="http://www.w3.org/1999/02/22-rdf-syntax-ns#">
 <metadata>
  <rdf:RDF>
   <cc:Work rdf:about="">
    <dc:format>image/svg+xml</dc:format>
    <dc:type rdf:resource="http://purl.org/dc/dcmitype/StillImage"/>
   </cc:Work>
  </rdf:RDF>
 </metadata>
 <g transform="translate(1261 28.638)">
  <g transform="matrix(4 0 0 4 -1260 -1357.1)" fill-rule="evenodd">
   <rect y="332.36" width="60" height="90" rx="10" ry="10" fill="#fff" stroke="#000" stroke-width=".5"/>
   <rect x="5" y="337.36" width="50" height="80" rx="5" ry="5" fill="#5a5"/>
   <path d="m45 352.36c-22.091 0-40 17.909-40 40 0 5.5228 4.4772 10 10 10 22.091 0 40-17.909 40-40 0-5.5228-4.4772-10-10-10z" fill="#fff"/>
   <path d="m30 362.36c-5.5228 0-10 4.4772-10 10v10c0 5.5228 4.4772 10 10 10s10-4.4772 10-10v-10c0-5.5228-4.4772-10-10-10zm0 5c2.7614 0 5 2.2386 5 5v10c0 2.7614-2.2386 5-5 5s-5-2.2386-5-5v-10c0-2.7614 2.2386-5 5-5z" fill="#5a5"/>
   <path d="m12.5 339.86c-2.7614 0-5 2.2386-5 5v5c0 2.7614 2.2386 5 5 5 2.7614 0 5-2.2386 5-5v-5c0-2.7614-2.2386-5-5-5zm0 2.5c1.3807 0 2.5 1.1193 2.5 2.5v5c0 1.3807-1.1193 2.5-2.5 2.5s-2.5-1.1193-2.5-2.5v-5c0-1.3807 1.1193-2.5 2.5-2.5z" fill="#fff"/>
   <path d="m47.5 399.86c-2.7614 0-5 2.2386-5 5v5c0 2.7614 2.2386 5 5 5 2.7614 0 5-2.2386 5-5v-5c0-2.7614-2.2386-5-5-5zm0 2.5c1.3807 0 2.5 1.1193 2.5 2.5v5c0 1.3807-1.1193 2.5-2.5 2.5s-2.5-1.1193-2.5-2.5v-5c0-1.3807 1.1193-2.5 2.5-2.5z" fill="#fff"/>
  </g>
 </g>
</svg>
