<?xml version="1.0" encoding="UTF-8"?>
<!-- Created with Inkscape (http://www.inkscape.org/) -->
<svg width="242" height="362" version="1.1" xmlns="http://www.w3.org/2000/svg" xmlns:cc="http://creativecommons.org/ns#" xmlns:dc="http://purl.org/dc/elements/1.1/" xmlns:rdf="http://www.w3.org/1999/02/22-rdf-syntax-ns#">
 <metadata>
  <rdf:RDF>
   <cc:Work rdf:about="">
    <dc:format>image/svg+xml</dc:format>
    <dc:type rdf:resource="http://purl.org/dc/dcmitype/StillImage"/>
   </cc:Work>
  </rdf:RDF>
 </metadata>
 <g transform="translate(-179 388.64)">
  <g transform="matrix(4 0 0 4 -1260 -1717.1)" fill-rule="evenodd">
   <rect x="360" y="332.36" width="60" height="90" rx="10" ry="10" fill="#fff" stroke="#000" stroke-width=".5"/>
   <rect x="365" y="337.36" width="50" height="80" rx="5" ry="5" fill="#fa0"/>
   <path d="m405 352.36c-22.091 0-40 17.909-40 40 0 5.5228 4.4772 10 10 10 22.091 0 40-17.909 40-40 0-5.5228-4.4772-10-10-10z" fill="#fff"/>
   <path d="m390 362.36c-5.5228 0-10 4.4772-10 10v10c0 5.5228 4.4772 10 10 10s10-4.4772 10-10-4.4772-10-10-10c-1.817 0-3.5316 0.49674-5 1.3438v-1.3438c0-2.7614 2.2386-5 5-5 1.9543 0 3.6151 1.147 4.4375 2.7812l4.5-2.25c-1.6393-3.2844-5.0173-5.5312-8.9375-5.5312zm0 15c2.7614 0 5 2.2386 5 5s-2.2386 5-5 5-5-2.2386-5-5 2.2386-5 5-5zm-5 16v2h10v-2z" fill="#fa0"/>
   <path d="m372.5 339.86c-2.7614 0-5 2.2386-5 5v5c0 2.7614 2.2386 5 5 5 2.7614 0 5-2.2386 5-5 0-2.7614-2.2386-5-5-5-0.9085 0-1.7658 0.24837-2.5 0.67187v-0.67187c0-1.3807 1.1193-2.5 2.5-2.5 0.97712 0 1.8076 0.57351 2.2187 1.3906l2.25-1.125c-0.81962-1.6422-2.5086-2.7656-4.4687-2.7656zm0 7.5c1.3807 0 2.5 1.1193 2.5 2.5s-1.1193 2.5-2.5 2.5c-1.3807 0-2.5-1.1193-2.5-2.5s1.1193-2.5 2.5-2.5z" fill="#fff"/>
   <path d="m407.5 414.86c2.7614 0 5-2.2386 5-5v-5c0-2.7614-2.2386-5-5-5-2.7614 0-5 2.2386-5 5 0 2.7614 2.2386 5 5 5 0.9085 0 1.7658-0.24837 2.5-0.67187v0.67187c0 1.3807-1.1193 2.5-2.5 2.5-0.97712 0-1.8076-0.57351-2.2187-1.3906l-2.25 1.125c0.81962 1.6422 2.5086 2.7656 4.4687 2.7656zm0-7.5c-1.3807 0-2.5-1.1193-2.5-2.5s1.1193-2.5 2.5-2.5c1.3807 0 2.5 1.1193 2.5 2.5s-1.1193 2.5-2.5 2.5z" fill="#fff"/>
  </g>
 </g>
</svg>
